<?xml version="1.0" standalone="no"?>
<!DOCTYPE svg PUBLIC "-//W3C//DTD SVG 20010904//EN"
 "http://www.w3.org/TR/2001/REC-SVG-20010904/DTD/svg10.dtd">
<svg version="1.0" xmlns="http://www.w3.org/2000/svg"
 width="260.000000pt" height="260.000000pt" viewBox="0 0 260.000000 260.000000"
 preserveAspectRatio="xMidYMid meet">
<metadata>
Created by potrace 1.11, written by Peter Selinger 2001-2013
</metadata>
<g transform="translate(0.000000,260.000000) scale(0.100000,-0.100000)"
fill="#000000" stroke="none">
<path d="M1405 1939 c-77 -133 -151 -263 -165 -288 -58 -105 -135 -231 -141
-231 -4 0 -30 39 -57 88 -134 237 -177 312 -182 312 -6 0 -56 -85 -305 -517
l-128 -223 -98 0 -99 0 0 50 0 50 76 0 76 0 -31 55 c-36 63 -36 65 -16 65 12
0 10 9 -10 40 -14 23 -21 42 -15 45 6 4 -1 24 -16 51 -14 24 -21 44 -15 44 5
0 -4 25 -22 55 -18 30 -35 54 -40 52 -16 -5 -67 -106 -57 -112 7 -4 3 -20 -11
-41 -11 -19 -19 -41 -16 -48 3 -7 -3 -28 -14 -45 -23 -38 -23 -41 -4 -41 12 0
8 -12 -15 -53 -16 -30 -30 -57 -30 -60 0 -4 32 -7 70 -7 l70 0 0 -50 0 -50
-85 0 c-53 0 -85 -4 -85 -11 0 -7 381 -10 1260 -8 708 1 1260 5 1260 10 0 10
-3 11 -80 13 l-55 1 0 50 0 50 68 1 c37 1 70 4 73 7 4 3 -8 29 -25 56 -23 38
-27 51 -16 51 20 0 19 6 -6 46 -11 19 -18 38 -14 43 3 6 -4 28 -15 51 -11 22
-18 40 -15 40 4 0 -8 27 -26 61 -30 56 -34 60 -47 42 -26 -35 -53 -94 -47
-104 4 -5 -3 -26 -15 -47 -12 -20 -17 -38 -12 -40 6 -2 -1 -23 -15 -48 -21
-36 -22 -44 -9 -44 13 0 10 -10 -14 -53 -16 -30 -30 -56 -30 -58 0 -2 31 -3
70 -3 53 1 70 -2 71 -12 1 -8 2 -31 2 -51 l1 -38 -112 -1 -112 0 -92 160 c-50
89 -128 224 -173 301 -45 77 -146 251 -224 388 -79 136 -144 247 -145 247 -1
0 -64 -109 -141 -241z m179 139 l27 -48 -45 0 -44 0 10 38 c17 61 18 65 21 61
2 -2 16 -25 31 -51z m-68 -7 c-3 -5 -20 -68 -36 -141 l-31 -132 112 -180 c62
-99 108 -183 103 -187 -5 -4 -55 -43 -111 -85 -57 -42 -103 -80 -103 -84 0 -4
17 -22 38 -39 20 -18 64 -57 96 -86 l60 -54 -352 1 c-194 1 -352 3 -352 5 0 2
36 65 79 140 44 75 154 267 246 426 92 160 185 320 207 358 21 37 41 67 44 67
3 0 3 -4 0 -9z m127 -95 l16 -34 -75 1 c-63 1 -74 3 -74 18 0 41 11 49 64 49
50 0 53 -2 69 -34z m22 -55 c12 -1 47 -56 40 -62 -5 -5 -215 -3 -219 2 -2 2 1
18 5 34 l8 30 78 -1 c43 -1 83 -3 88 -3z m76 -115 c10 -17 19 -34 19 -37 0 -3
-60 -6 -134 -6 -131 0 -135 1 -145 24 -21 45 -9 50 121 50 l120 0 19 -31z
m-842 -90 c17 -29 31 -56 31 -60 0 -3 -20 -6 -45 -6 -25 0 -45 4 -45 9 0 13
23 111 26 111 1 0 16 -24 33 -54z m-85 -81 c-14 -60 -27 -123 -30 -139 -3 -16
-7 -32 -9 -36 -2 -3 19 -35 46 -71 94 -122 96 -97 -14 -207 l-97 -97 -125 -1
c-142 -1 -140 -3 -87 81 21 33 127 216 235 405 11 19 28 49 38 65 10 17 29 49
41 72 12 24 23 42 24 40 1 -1 -9 -51 -22 -112z m973 89 c42 -56 46 -54 -101
-54 l-134 0 -20 34 c-11 19 -19 36 -17 38 2 1 61 3 130 2 114 0 129 -2 142
-20z m65 -112 l20 -33 -133 3 -133 3 -19 33 -19 33 131 -3 132 -3 21 -33z
m-877 -25 c14 -24 25 -46 25 -48 0 -7 -180 -3 -181 4 0 4 2 25 6 47 l7 40 58
0 c59 0 59 0 85 -43z m928 -62 c9 -20 17 -37 17 -39 0 -1 -56 -3 -125 -3
l-124 0 -26 38 -25 39 133 0 133 0 17 -35z m532 -15 c-3 -6 -17 -10 -31 -10
-24 0 -24 0 -8 31 15 31 16 31 30 10 9 -12 12 -26 9 -31z m-2201 23 c9 -28 7
-37 -7 -39 -28 -4 -40 12 -28 35 14 26 28 27 35 4z m808 -65 l27 -48 -123 0
c-140 0 -153 6 -142 64 l7 34 101 -1 102 -2 28 -47z m1421 -23 l17 -35 -66 0
-65 0 18 31 c18 31 49 50 69 42 6 -2 18 -19 27 -38z m-2200 3 c9 -16 17 -33
17 -38 0 -4 -27 -7 -60 -7 -33 0 -60 3 -60 6 0 3 9 20 19 37 25 42 61 42 84 2z
m1694 -18 c13 -19 23 -38 23 -41 0 -4 -77 -7 -171 -7 l-172 0 31 24 c19 15 28
30 25 42 -4 16 6 17 119 17 l123 0 22 -35z m-874 -37 c3 -5 -6 -25 -19 -45
-24 -38 -25 -38 -92 -38 l-67 1 -33 44 -33 45 120 0 c66 0 122 -3 124 -7z
m-811 -12 c11 -1 40 -61 31 -62 -25 -4 -150 -5 -160 -1 -9 3 -8 11 5 30 9 15
20 29 24 32 6 5 71 5 100 1z m2219 -28 l21 -33 -96 0 -95 0 21 35 c20 35 22
36 75 33 49 -3 56 -6 74 -35z m-480 -14 c38 -49 37 -49 -237 -49 -150 0 -253
4 -250 9 4 5 25 22 49 38 l43 28 188 -1 c187 0 188 0 207 -25z m-1691 -91 l30
-48 -125 0 c-69 0 -125 2 -125 4 0 8 44 81 52 87 5 3 38 6 73 6 l65 -1 30 -48z
m2193 10 c14 -24 23 -45 21 -48 -3 -2 -58 -5 -123 -5 -130 0 -126 -3 -86 63
19 31 21 32 91 32 l72 0 25 -42z m-1511 -18 l-27 -50 -64 0 -64 0 44 49 c40
45 48 49 91 50 l48 1 -28 -50z m1067 -4 c12 -18 21 -36 21 -40 0 -3 -120 -6
-267 -6 l-268 0 -37 34 c-21 19 -38 37 -38 40 0 3 128 6 284 6 l284 0 21 -34z
m-1130 -106 c-13 -22 -27 -41 -33 -42 -6 0 -46 -2 -89 -3 l-77 -1 42 43 c42
42 43 43 111 43 l68 0 -22 -40z m1183 18 c8 -13 18 -32 21 -43 7 -20 3 -20
-232 -20 l-238 0 -49 42 -49 43 266 0 c266 0 267 0 281 -22z"/>
<path d="M205 964 c-5 -1 -26 -5 -45 -8 -148 -25 -176 -301 -37 -372 82 -43
217 5 217 78 0 23 -24 13 -40 -16 -41 -78 -176 -62 -215 25 -39 85 -18 194 46
242 54 40 147 18 174 -41 9 -20 45 -32 45 -14 0 17 -40 72 -61 82 -28 15 -71
28 -84 24z"/>
<path d="M2303 954 c-21 -8 -39 -14 -40 -14 -1 0 -10 -14 -19 -31 -20 -39 -12
-84 18 -110 11 -11 51 -28 88 -39 73 -22 103 -46 103 -85 0 -29 -28 -75 -46
-76 -6 -1 -25 -2 -42 -4 -47 -4 -82 14 -106 51 -24 39 -39 44 -39 13 0 -27 61
-89 89 -90 27 -2 65 -2 91 0 11 0 34 14 51 29 27 24 32 36 33 76 1 42 -3 51
-29 72 -16 13 -60 34 -97 45 -82 26 -94 39 -89 97 2 20 61 51 90 46 49 -9 61
-15 78 -45 10 -16 22 -28 27 -26 20 7 16 26 -11 57 -36 40 -94 53 -150 34z"/>
<path d="M519 958 c-1 -2 -2 -90 -3 -195 -1 -169 1 -193 14 -193 13 0 16 15
16 88 l0 87 76 0 c50 0 82 -5 90 -13 7 -7 15 -45 18 -85 4 -54 9 -73 20 -75
15 -3 17 11 11 126 -1 13 -11 33 -24 44 l-23 20 28 28 c48 49 28 137 -35 160
-25 8 -184 15 -188 8z m197 -50 c22 -22 22 -84 0 -106 -12 -12 -38 -18 -94
-20 l-77 -4 1 69 c1 37 2 72 3 77 2 16 149 2 167 -16z"/>
<path d="M948 953 c0 -5 -2 -92 -3 -195 l-1 -188 89 0 c101 0 138 14 163 61
21 41 11 93 -23 125 -24 22 -25 26 -10 37 48 36 35 120 -23 149 -36 18 -188
26 -192 11z m186 -44 c26 -20 34 -60 18 -86 -13 -20 -61 -33 -121 -33 l-59 0
1 70 0 70 67 0 c53 0 73 -4 94 -21z m0 -161 c45 -20 54 -78 19 -119 -23 -27
-29 -29 -102 -29 l-77 0 0 80 -1 80 68 0 c37 0 79 -5 93 -12z"/>
<path d="M1389 959 c-1 -2 -2 -91 -3 -196 -2 -173 0 -193 14 -193 14 0 16 13
16 90 l-1 90 62 0 c34 0 74 -5 88 -12 28 -13 34 -28 37 -108 2 -41 7 -56 19
-58 13 -2 16 5 13 45 -2 26 -3 61 -3 76 -1 17 -11 37 -24 49 l-23 20 28 28
c43 43 35 118 -15 150 -19 12 -205 29 -208 19z m190 -48 c29 -22 35 -74 11
-103 -16 -20 -27 -23 -97 -23 l-78 0 -1 65 c0 36 2 69 4 73 7 15 138 5 161
-12z"/>
<path d="M1819 958 c-1 -2 -2 -90 -3 -196 l-2 -194 97 4 c112 3 147 21 162 78
11 43 3 71 -29 104 -25 25 -26 27 -10 39 26 19 36 76 19 110 -20 39 -69 57
-158 57 -41 0 -76 -1 -76 -2z m185 -49 c26 -20 34 -60 18 -86 -13 -20 -60 -33
-121 -33 l-58 0 0 70 0 70 67 0 c53 0 73 -4 94 -21z m0 -160 c53 -24 53 -113
0 -137 -14 -7 -56 -12 -93 -12 l-68 0 0 80 0 80 68 0 c37 0 79 -5 93 -11z"/>
</g>
</svg>
